<?xml version="1.0" standalone="no"?><!DOCTYPE svg PUBLIC "-//W3C//DTD SVG 1.1//EN" "http://www.w3.org/Graphics/SVG/1.1/DTD/svg11.dtd"><svg t="1768054009518" class="icon" viewBox="0 0 1075 1024" version="1.1" xmlns="http://www.w3.org/2000/svg" p-id="1239" xmlns:xlink="http://www.w3.org/1999/xlink" width="209.9609375" height="200"><path d="M180.012698 512a284.444444 284.444444 0 1 0 568.888889 0 284.444444 284.444444 0 1 0-568.888889 0Z" fill="#FB6AAF" p-id="1240"></path><path d="M277.536508 512a284.444444 284.444444 0 1 0 568.888889 0 284.444444 284.444444 0 1 0-568.888889 0Z" fill="#4DE2E8" p-id="1241"></path><path d="M513.219048 792.234667C649.451683 768.528254 748.901587 650.280635 748.901587 512S649.451683 255.471746 513.219048 231.765333C376.986413 255.471746 277.536508 373.719365 277.536508 512s99.449905 256.528254 235.68254 280.234667z" fill="#E992FB" p-id="1242"></path><path d="M374.085079 423.578413q-1.706667-1.690413-3.039492-3.689651-1.332825-1.991111-2.251174-4.209778-0.918349-2.218667-1.381588-4.575492Q366.933333 408.746667 366.933333 406.349206q0-1.194667 0.113778-2.389333t0.34946-2.364952q0.235683-1.178413 0.585143-2.324318 0.34946-1.137778 0.804572-2.251174 0.455111-1.10527 1.024-2.161778t1.227174-2.048q0.666413-0.999619 1.422223-1.926095 0.763937-0.926476 1.609142-1.771683 0.845206-0.845206 1.771683-1.609143 0.926476-0.75581 1.926095-1.422222 0.991492-0.666413 2.048-1.227175 1.056508-0.568889 2.161778-1.024 1.10527-0.455111 2.251175-0.812698 1.145905-0.341333 2.324317-0.568889 1.170286-0.24381 2.364952-0.357587 1.194667-0.113778 2.389334-0.113778 2.39746 0 4.754285 0.463238 2.356825 0.471365 4.575493 1.381587 2.218667 0.926476 4.209777 2.259302 1.999238 1.332825 3.697778 3.031365L474.558984 455.111111l-66.007365 65.999238q-1.69854 1.69854-3.697778 3.031365-1.991111 1.332825-4.209778 2.251175-2.218667 0.918349-4.575492 1.381587Q393.711746 528.253968 391.314286 528.253968q-1.194667 0-2.389334-0.113778t-2.364952-0.34946q-1.178413-0.235683-2.324317-0.585143-1.137778-0.34946-2.251175-0.804571-1.10527-0.455111-2.161778-1.024t-2.048-1.227175q-0.999619-0.666413-1.926095-1.422222-0.926476-0.763937-1.771683-1.609143-0.845206-0.845206-1.609142-1.771682-0.75581-0.926476-1.422223-1.926096-0.666413-0.991492-1.227174-2.048-0.568889-1.056508-1.024-2.161777-0.455111-1.10527-0.812699-2.251175-0.341333-1.145905-0.568889-2.324317-0.24381-1.170286-0.357587-2.364953-0.113778-1.194667-0.113778-2.389333 0-2.39746 0.463238-4.754286 0.471365-2.356825 1.381588-4.575492 0.926476-2.218667 2.259301-4.209778 1.332825-1.999238 3.031365-3.697777L405.593397 455.111111l-31.516445-31.524571z m278.267937 0q1.706667-1.690413 3.039492-3.689651 1.332825-1.991111 2.251175-4.209778 0.918349-2.218667 1.381587-4.575492Q659.504762 408.746667 659.504762 406.349206q0-1.194667-0.113778-2.389333t-0.34946-2.364952q-0.235683-1.178413-0.585143-2.324318-0.34946-1.137778-0.804571-2.251174-0.455111-1.10527-1.024-2.161778t-1.227175-2.048q-0.666413-0.999619-1.422222-1.926095-0.763937-0.926476-1.609143-1.771683-0.845206-0.845206-1.771683-1.609143-0.926476-0.75581-1.926095-1.422222-0.991492-0.666413-2.048-1.227175-1.056508-0.568889-2.161778-1.024-1.10527-0.455111-2.251174-0.812698-1.145905-0.341333-2.324318-0.568889-1.170286-0.24381-2.364952-0.357587-1.194667-0.113778-2.389333-0.113778-2.39746 0-4.754286 0.463238-2.356825 0.471365-4.575492 1.381587-2.218667 0.926476-4.209778 2.259302-1.999238 1.332825-3.697778 3.031365L551.879111 455.111111l66.007365 65.999238q1.69854 1.69854 3.697778 3.031365 1.991111 1.332825 4.209778 2.251175 2.218667 0.918349 4.575492 1.381587 2.356825 0.471365 4.754286 0.471365 1.194667 0 2.389333-0.113778t2.364952-0.34946q1.178413-0.235683 2.324318-0.585143 1.137778-0.34946 2.251174-0.804571 1.10527-0.455111 2.161778-1.024t2.048-1.227175q0.999619-0.666413 1.926095-1.422222 0.926476-0.763937 1.771683-1.609143 0.845206-0.845206 1.609143-1.771682 0.75581-0.926476 1.422222-1.926096 0.666413-0.991492 1.227175-2.048 0.568889-1.056508 1.024-2.161777 0.455111-1.10527 0.812698-2.251175 0.341333-1.145905 0.568889-2.324317 0.24381-1.170286 0.357587-2.364953 0.113778-1.194667 0.113778-2.389333 0-2.39746-0.463238-4.754286-0.471365-2.356825-1.381587-4.575492-0.926476-2.218667-2.259302-4.209778-1.332825-1.999238-3.031365-3.697777L620.844698 455.111111l31.516445-31.524571zM483.230476 561.477079Q496.111746 577.015873 513.219048 577.015873t29.988571-15.555048q1.714794-2.064254 3.844064-3.714031 2.121143-1.641651 4.551111-2.787556 2.438095-1.145905 5.063111-1.731048Q559.299048 552.634921 561.980952 552.634921q1.194667 0 2.389334 0.113777t2.364952 0.349461q1.178413 0.235683 2.324318 0.585143 1.137778 0.34946 2.251174 0.804571 1.10527 0.455111 2.161778 1.024t2.048 1.227175q0.999619 0.666413 1.926095 1.422222 0.926476 0.763937 1.771683 1.609143 0.845206 0.845206 1.609143 1.771682 0.75581 0.926476 1.422222 1.926095 0.666413 0.991492 1.227174 2.048 0.568889 1.056508 1.024 2.161778 0.455111 1.10527 0.812699 2.251175 0.341333 1.145905 0.568889 2.324317 0.24381 1.170286 0.357587 2.364953 0.113778 1.194667 0.113778 2.389333 0 2.113016-0.357588 4.193524-0.365714 2.080508-1.080888 4.063492-0.715175 1.991111-1.763556 3.827809-1.056508 1.836698-2.39746 3.462096Q553.252571 625.777778 513.219048 625.777778t-67.535238-33.206857q-1.349079-1.633524-2.397461-3.470223-1.048381-1.836698-1.763555-3.819682-0.715175-1.991111-1.080889-4.063492-0.357587-2.088635-0.357588-4.201651 0-1.194667 0.113778-2.389333t0.349461-2.364953q0.235683-1.178413 0.585142-2.324317 0.34946-1.137778 0.804572-2.251175 0.455111-1.10527 1.024-2.161778t1.227174-2.048q0.666413-0.999619 1.422223-1.926095 0.763937-0.926476 1.609143-1.771682 0.845206-0.845206 1.771682-1.609143 0.926476-0.75581 1.926095-1.422222 0.991492-0.666413 2.048-1.227175 1.056508-0.568889 2.161778-1.024 1.10527-0.455111 2.251175-0.812698 1.145905-0.341333 2.324317-0.568889 1.170286-0.24381 2.364953-0.357588 1.194667-0.113778 2.389333-0.113777 2.681905 0 5.315047 0.585142 2.625016 0.585143 5.054985 1.731048 2.438095 1.137778 4.559238 2.787556 2.12927 1.649778 3.844063 3.722158z" fill="#FFFFFF" p-id="1243"></path><path d="M278.113524 684.097016q-2.56 5.648254-4.884318 11.719111-1.609143 4.217905-1.609143 8.728381 0 1.194667 0.113778 2.389333 0.121905 1.18654 0.349461 2.356826 0.235683 1.178413 0.585142 2.324317t0.804572 2.251175q0.455111 1.113397 1.024 2.169904t1.227174 2.048q0.666413 0.991492 1.422223 1.917969 0.763937 0.926476 1.609143 1.771682 0.845206 0.853333 1.771682 1.609143 0.926476 0.763937 1.926095 1.430349 0.991492 0.658286 2.048 1.219048 1.056508 0.568889 2.161778 1.032127 1.10527 0.455111 2.251175 0.804571 1.145905 0.34946 2.324317 0.577016 1.170286 0.24381 2.364953 0.357588 1.194667 0.113778 2.389333 0.113777 1.836698 0 3.657143-0.276317t3.575873-0.820826q1.755429-0.544508 3.413333-1.349079 1.649778-0.804571 3.169524-1.844825 1.511619-1.040254 2.852571-2.299937 1.340952-1.259683 2.47873-2.706286 1.137778-1.438476 2.048-3.039492 0.910222-1.601016 1.568508-3.315809 11.239619-29.322159 27.737397-42.309079 10.093714-7.94819 19.309715 1.080888 12.04419 11.784127-11.930413 50.712381-26.323302 42.747937-46.681397 42.747937-20.967619 0-46.868317-36.758349-23.007492-32.662349-13.507048-43.861334 6.940444-8.175746 14.214095-7.582476 7.298032 0.59327 17.082921 6.802286z m26.575238-40.79746q5.534476-5.851429 11.637841-10.654477 43.755683-34.458413 83.594159 4.542984 39.870984 39.033905-4.52673 111.120254-40.602413 65.950476-88.202159 65.950477-46.258794 0-86.731175-57.433397-44.755302-63.520508-10.817015-103.497143 23.137524-27.266032 55.344761-24.632889 19.171556 1.560381 39.692191 14.604191z" fill="#000000" p-id="1244"></path></svg>