<?xml version="1.0" standalone="no"?><!DOCTYPE svg PUBLIC "-//W3C//DTD SVG 1.1//EN" "http://www.w3.org/Graphics/SVG/1.1/DTD/svg11.dtd"><svg class="icon" width="200px" height="200.00px" viewBox="0 0 1024 1024" version="1.1" xmlns="http://www.w3.org/2000/svg"><path d="M512 276.034783L311.652174 391.791304V623.304348l200.347826 115.756522 200.347826-115.756522V391.791304L512 276.034783z m244.869565 89.043478v284.93913L512 792.486957l-244.869565-142.469566V365.078261L512 227.06087l244.869565 138.017391z" fill="#1FD8BB" /><path d="M512 17.808696L89.043478 262.678261v489.73913l422.956522 244.869566 422.956522-244.869566v-489.73913L512 17.808696z m0 53.426087l360.626087 209.252174-356.173913 218.156521-360.626087-222.608695 356.173913-204.8zM133.565217 316.104348l356.173913 218.156522v400.695652l-356.173913-204.8V316.104348z m761.32174 409.6l-356.173914 204.8V534.26087l356.173914-218.156522v409.6z" fill="#7142FF" /></svg>